<svg xmlns="http://www.w3.org/2000/svg" viewBox="0 0 439 512"><path d="M438.9 382.3c0 71.7-55.9 129.5-125.4 129.7C243.7 512.2 187 453.9 187 382.1c.1-71.8 57-130.2 126.7-129.9c69.3 .3 125.2 58.5 125.2 130.1zm-149.2 31c-12.2-13-23.4-24.8-34.6-36.7c-5.6-6-11.9-9.3-18.5-2.6c-6.6 6.7-3.6 13.2 2.1 19.1c13.2 13.5 26.3 27.1 39.5 40.6c9.8 10 14.2 10 24.1-.1c27.9-28.6 55.6-57.3 83.5-86c1-1 2-2.1 3-3.2c5.1-5.5 6.7-11.7 1.1-17.5c-5.5-5.9-11.5-4.8-17 .6c-2.3 2.3-4.6 4.7-6.9 7c-25 25.8-50 51.5-76.3 78.7v.1zM194 475.9c-4 .3-6.7 .6-9.5 .6c-41.9 0-83.8 .2-125.7 0c-34.1-.1-55-21.5-55-56.6c-.1-103.8-.1-207.6 0-311.4C3.8 73 24.9 51.4 59.4 51.1c11.8-.1 23.6 0 35.4 0c2.3-6.5 3.8-12.6 6.6-18c9.5-18.5 24.6-28.6 44.9-29c24-.5 48-.1 72-.1c34.5 0 50.1 11.9 60.7 47.1c11.7 0 23.8-.1 35.9 0c33.9 .3 55.1 21.9 55.3 56.7c.2 40.6 .1 81.3 0 121.9c0 2.9-.3 5.8-.6 9.2c-10.2-2.6-20-4.5-29.3-8c-2.4-.9-4.3-6.9-4.3-10.5c-.3-36.2-.2-72.4-.2-108.6c0-20.3-5-25.3-25-25.3c-5.7 0-11.5 .3-17.2-.1c-13.4-.9-24.7 .7-35.6 11.8c-7.2 7.3-20.4 10.9-31.3 11.5c-26.4 1.6-53 .6-79.5 .5c-15.1 0-27.4-6.4-38.4-17.1c-3.6-3.6-9.5-6-14.5-6.4c-12.1-.9-24.3-.5-36.5-.2c-13.5 .3-19.6 6.6-19.6 20.7c-.1 104.5-.1 209.1 0 313.6c0 14 6.1 20.1 19.9 20.2c36.2 .2 72.3 .2 108.5 0c6 0 9.7 1.4 12.4 7.6c4 9 9.4 17.3 15 27.4h.1zM186.5 74.8c12.9 0 25.7 .2 38.6 0c11.7-.2 19.2-7.4 19.2-17.8c0-10.4-7.6-17.5-19.3-17.6c-25.4-.2-50.7-.2-76.1 0c-11.7 .1-19.2 7.3-19.1 17.7c0 10.4 7.6 17.4 19.3 17.6c12.5 .2 25 0 37.5 0h0zm-1 118c-26.8 0-53.6 .1-80.5 0c-13.7-.1-21.3-6.5-21.2-17.7c.1-10.7 7.6-17.6 20.4-17.7c55.1-.2 110.2-.2 165.2 0c15.9 .1 24.8 12.1 19.2 24.9c-3.6 8.2-10.3 10.5-18.4 10.5c-28.3-.1-56.5 0-84.8 0v-.1zM141 263.8c-12.9 0-25.7 .2-38.6-.1c-11.3-.3-18.4-7-18.6-17c-.2-10 6.6-17.9 17.7-18.1c26.4-.5 52.9-.5 79.4 0c11.2 .2 17.7 7.9 17.4 18.3c-.3 10.2-7.1 16.6-18.7 16.8c-12.9 .3-25.7 .1-38.6 .1l.1 0z"/></svg>