<svg xmlns="http://www.w3.org/2000/svg" viewBox="0 0 349 512"><path d="M174.5 512l-16.4-20.5c-14.3-18.4-122.9-157.7-151.6-258L.4 241.7l0-49.2C.4 88.1 78.2 2 174.5 2s174.1 86 174.1 190.5c0 98.3-143.4 278.5-157.7 299L174.5 512zM41.4 188.4v4.1c0 63.5 86 190.5 133.1 254c49.2-63.5 133.1-190.5 133.1-254c0-81.9-59.4-149.5-133.1-149.5C102.8 43 43.4 106.5 41.4 188.4zm133.1 84c-43 0-79.9-38.9-79.9-86c0-45.1 36.9-84 79.9-84s79.9 38.9 79.9 86s-36.9 84-79.9 84zm0-129c-20.5 0-38.9 20.5-38.9 45.1s16.4 45.1 38.9 45.1s38.9-20.5 38.9-45.1s-18.4-45.1-38.9-45.1z"/></svg>