<svg xmlns="http://www.w3.org/2000/svg" viewBox="0 0 30 30"><path d="M7.1,8.76V21.41H3.94V14.63a11.56,11.56,0,0,0-.07-1.77.63.63,0,0,0-.38-.45,4.06,4.06,0,0,0-1.41-.15H1.77V10.78a5.7,5.7,0,0,0,3.47-2Z" fill="#231f20"/><path d="M15.91,12.12H12.75c0-.59,0-1,0-1.11a.56.56,0,0,0-.19-.39.61.61,0,0,0-.45-.16.54.54,0,0,0-.4.15.55.55,0,0,0-.18.38c0,.16,0,.48,0,.95v2a1.71,1.71,0,0,1,.72-.76,2.36,2.36,0,0,1,1.15-.25,2.59,2.59,0,0,1,1.53.47,2.07,2.07,0,0,1,.85,1.12,7,7,0,0,1,.18,1.78v1a13.35,13.35,0,0,1-.11,2,2.51,2.51,0,0,1-.54,1.2,2.79,2.79,0,0,1-1.21.85,4.69,4.69,0,0,1-1.79.31,5.39,5.39,0,0,1-2.09-.35,2.81,2.81,0,0,1-1.25-1A3,3,0,0,1,8.4,18.9c-.05-.48-.07-1.42-.07-2.82V14.33c0-1.51,0-2.51.06-3a2.94,2.94,0,0,1,.55-1.44,2.89,2.89,0,0,1,1.3-1,4.88,4.88,0,0,1,1.9-.34,4.78,4.78,0,0,1,2.18.43,2.6,2.6,0,0,1,1.22,1.21A4.71,4.71,0,0,1,15.91,12.12Zm-3.16,3.94a2,2,0,0,0-.15-.92.53.53,0,0,0-.48-.25.52.52,0,0,0-.48.24,1.81,1.81,0,0,0-.16.93v2.29a2.6,2.6,0,0,0,.15,1.1.49.49,0,0,0,.48.25.63.63,0,0,0,.42-.2c.15-.13.22-.49.22-1.07Z" fill="#231f20"/><path d="M19.38,13.17v2.57H17V13.17Zm0,5.66v2.58H17V18.83Z" fill="#231f20"/><path d="M20.23,18.05h3.15q0,.89,0,1.11a.58.58,0,0,0,.19.39.64.64,0,0,0,.45.15.53.53,0,0,0,.4-.14.55.55,0,0,0,.18-.39c0-.15,0-.47,0-.94v-2A1.62,1.62,0,0,1,24,17a2.44,2.44,0,0,1-1.17.26,2.59,2.59,0,0,1-1.53-.47,2,2,0,0,1-.84-1.13,6.87,6.87,0,0,1-.18-1.77v-1a13.6,13.6,0,0,1,.1-2,2.44,2.44,0,0,1,.55-1.2,2.75,2.75,0,0,1,1.21-.86,4.9,4.9,0,0,1,1.79-.3A5.16,5.16,0,0,1,26,8.87a2.88,2.88,0,0,1,1.77,2.4c.05.48.07,1.42.07,2.81v1.76c0,1.5,0,2.51-.06,3a2.9,2.9,0,0,1-.54,1.44,3,3,0,0,1-1.3,1,5.07,5.07,0,0,1-1.9.34,4.89,4.89,0,0,1-2.18-.43A2.56,2.56,0,0,1,20.6,20,4.56,4.56,0,0,1,20.23,18.05Zm3.15-4q0,.8.21,1a.65.65,0,0,0,.43.18A.54.54,0,0,0,24.5,15a2,2,0,0,0,.15-.94V11.81a2.54,2.54,0,0,0-.15-1.09.5.5,0,0,0-.48-.26.67.67,0,0,0-.42.2,1.67,1.67,0,0,0-.22,1.08Z" fill="#231f20"/></svg>