<svg xmlns="http://www.w3.org/2000/svg" viewBox="0 0 30 30"><path d="M12.14,9v8.27H13v2.16h-.9v2.22H9V19.44H5.24V17.28L8,9ZM9,17.28V11.9l-1.4,5.38Z" fill="#231f20"/><path d="M16.08,13.43V16H13.7V13.43Zm0,5.65v2.58H13.7V19.08Z" fill="#231f20"/><path d="M22.86,14.5a1.91,1.91,0,0,1,1.07.79,5.7,5.7,0,0,1,.36,2.58,6.26,6.26,0,0,1-.35,2.34,2.41,2.41,0,0,1-1.19,1.27,4.69,4.69,0,0,1-2.16.43,4.63,4.63,0,0,1-2.36-.5,2.45,2.45,0,0,1-1.12-1.24,8.15,8.15,0,0,1-.27-2.53v-1H20v2.05a3.65,3.65,0,0,0,.09,1,.43.43,0,0,0,.44.22.47.47,0,0,0,.48-.28,5.16,5.16,0,0,0,.12-1.47v-.88A2.55,2.55,0,0,0,21,16.27a.8.8,0,0,0-.48-.44,5,5,0,0,0-1.24-.12V13.87a6.35,6.35,0,0,0,1.39-.08.6.6,0,0,0,.38-.38,2.48,2.48,0,0,0,.12-.9V11.8a1.82,1.82,0,0,0-.14-.87.55.55,0,0,0-.87,0,2.4,2.4,0,0,0-.12,1v1H16.84V11.85a3,3,0,0,1,.83-2.45,4.36,4.36,0,0,1,2.63-.64,4.06,4.06,0,0,1,3.06.89,3.47,3.47,0,0,1,.81,2.45,3.06,3.06,0,0,1-.29,1.53A2.59,2.59,0,0,1,22.86,14.5Z" fill="#231f20"/></svg>