<svg xmlns="http://www.w3.org/2000/svg" viewBox="0 0 30 30"><path d="M13.21,12.37H10.06c0-.58,0-1,0-1.11a.6.6,0,0,0-.19-.39.65.65,0,0,0-.46-.15.56.56,0,0,0-.57.53,9.27,9.27,0,0,0,0,.94v2a1.64,1.64,0,0,1,.71-.76,2.42,2.42,0,0,1,1.16-.26,2.59,2.59,0,0,1,1.53.47A2.09,2.09,0,0,1,13,14.79a7.54,7.54,0,0,1,.17,1.77v1a13.76,13.76,0,0,1-.1,2,2.6,2.6,0,0,1-.54,1.2,2.87,2.87,0,0,1-1.21.85,4.89,4.89,0,0,1-1.79.31,5.19,5.19,0,0,1-2.09-.36,2.74,2.74,0,0,1-1.25-1,3,3,0,0,1-.52-1.38c0-.49-.07-1.43-.07-2.83V14.58c0-1.5,0-2.51.06-3a3,3,0,0,1,.55-1.45,2.89,2.89,0,0,1,1.3-1,5.07,5.07,0,0,1,1.9-.34,5,5,0,0,1,2.18.43,2.58,2.58,0,0,1,1.22,1.22A4.67,4.67,0,0,1,13.21,12.37Zm-3.15,4a1.93,1.93,0,0,0-.15-.92.51.51,0,0,0-.48-.25.52.52,0,0,0-.48.24,1.78,1.78,0,0,0-.16.93v2.29a2.51,2.51,0,0,0,.15,1.09.5.5,0,0,0,.48.26.67.67,0,0,0,.42-.2c.15-.13.22-.49.22-1.07Z" fill="#231f20"/><path d="M16.68,13.43V16H14.3V13.43Zm0,5.65v2.58H14.3V19.08Z" fill="#231f20"/><path d="M24,9v8.27h.9v2.16H24v2.22H20.82V19.44H17.07V17.28L19.79,9Zm-3.15,8.27V11.9l-1.4,5.38Z" fill="#231f20"/></svg>