<svg xmlns="http://www.w3.org/2000/svg" viewBox="0 0 30 30"><path d="M11.64,14.24a2,2,0,0,1,1.07.79,5.92,5.92,0,0,1,.35,2.59A6.33,6.33,0,0,1,12.71,20a2.41,2.41,0,0,1-1.18,1.26,4.76,4.76,0,0,1-2.17.44A4.58,4.58,0,0,1,7,21.15a2.42,2.42,0,0,1-1.13-1.23,8.22,8.22,0,0,1-.27-2.54v-1H8.77v2.06a3.13,3.13,0,0,0,.1,1,.42.42,0,0,0,.43.23.49.49,0,0,0,.49-.29A5.62,5.62,0,0,0,9.9,18v-.88A2.55,2.55,0,0,0,9.74,16a.79.79,0,0,0-.49-.44A4.93,4.93,0,0,0,8,15.46V13.62a6.09,6.09,0,0,0,1.39-.09.6.6,0,0,0,.39-.37,2.85,2.85,0,0,0,.11-.91v-.7a1.9,1.9,0,0,0-.13-.88.49.49,0,0,0-.43-.21.47.47,0,0,0-.45.23,2.31,2.31,0,0,0-.12.94v1H5.61V11.6a3,3,0,0,1,.83-2.45,4.29,4.29,0,0,1,2.63-.64,4.11,4.11,0,0,1,3.07.88,3.54,3.54,0,0,1,.8,2.45,3.13,3.13,0,0,1-.29,1.54A2.61,2.61,0,0,1,11.64,14.24Z" fill="#231f20"/><path d="M16.57,13.17v2.57H14.19V13.17Zm0,5.66v2.58H14.19V18.83Z" fill="#231f20"/><path d="M23.86,8.76V17h.9v2.15h-.9v2.23H20.71V19.18H17V17l2.72-8.27ZM20.71,17V11.64L19.31,17Z" fill="#231f20"/></svg>