<svg xmlns="http://www.w3.org/2000/svg" viewBox="0 0 30 30"><path d="M12.69,8.76v2H8.78v2.15a2.36,2.36,0,0,1,1.89-.87,2.55,2.55,0,0,1,2,.73,4.28,4.28,0,0,1,.67,2.81v1.81a10.45,10.45,0,0,1-.13,2,2.65,2.65,0,0,1-.55,1.16,2.61,2.61,0,0,1-1.17.82,5.26,5.26,0,0,1-1.84.29,5,5,0,0,1-2.15-.43A2.52,2.52,0,0,1,6.15,20a6.55,6.55,0,0,1-.39-2.61v-.68H8.91v.79A11.64,11.64,0,0,0,9,19.19a.54.54,0,0,0,.59.51.5.5,0,0,0,.38-.14.52.52,0,0,0,.16-.32c0-.12,0-.62,0-1.5v-2.5a2.31,2.31,0,0,0-.14-1,.52.52,0,0,0-.5-.26.52.52,0,0,0-.36.13.56.56,0,0,0-.19.29,3.08,3.08,0,0,0-.05.7H5.79l.13-6.37Z" fill="#231f20"/><path d="M16.77,13.17v2.57H14.39V13.17Zm0,5.66v2.58H14.39V18.83Z" fill="#231f20"/><path d="M24.43,19.25v2.16H17.48V19.6c2.05-3.36,3.28-5.44,3.66-6.24a4.76,4.76,0,0,0,.59-1.87,1.33,1.33,0,0,0-.18-.77.62.62,0,0,0-.54-.26.59.59,0,0,0-.53.28,2.33,2.33,0,0,0-.18,1.12v1.2H17.48V12.6a10.26,10.26,0,0,1,.11-1.67,3.16,3.16,0,0,1,.54-1.21,2.67,2.67,0,0,1,1.12-.9,4.12,4.12,0,0,1,1.65-.3,4,4,0,0,1,2.85.93,3.15,3.15,0,0,1,1,2.36,5.65,5.65,0,0,1-.54,2.3A48.56,48.56,0,0,1,21,19.25Z" fill="#231f20"/></svg>